<?xml version="1.0" encoding="UTF-8" standalone="no"?>
<!DOCTYPE svg PUBLIC "-//W3C//DTD SVG 1.1//EN"
 "http://www.w3.org/Graphics/SVG/1.1/DTD/svg11.dtd">
<!-- Generated by graphviz version 12.2.1 (20241206.2353)
 -->
<!-- Title: AntigravityExtractor Pages: 1 -->
<svg width="769pt" height="334pt"
 viewBox="0.00 0.00 769.38 333.75" xmlns="http://www.w3.org/2000/svg" xmlns:xlink="http://www.w3.org/1999/xlink">
<g id="graph0" class="graph" transform="scale(1 1) rotate(0) translate(4 329.75)">
<title>AntigravityExtractor</title>
<polygon fill="#fffcf7" stroke="none" points="-4,4 -4,-329.75 765.38,-329.75 765.38,4 -4,4"/>
<!-- source_label -->
<g id="node1" class="node">
<title>source_label</title>
<text text-anchor="start" x="2" y="-286.55" font-family="Songti SC, Noto Serif CJK SC, serif" font-weight="bold" font-size="11.00" fill="#7a9e7e">Data Sources</text>
</g>
<!-- state_db -->
<g id="node2" class="node">
<title>state_db</title>
<polygon fill="#d4e8d4" stroke="none" points="120.5,-291.5 120.5,-325.75 214,-325.75 214,-291.5 120.5,-291.5"/>
<polygon fill="none" stroke="#7a9e7e" points="120.5,-291.5 120.5,-325.75 214,-325.75 214,-291.5 120.5,-291.5"/>
<text text-anchor="start" x="135.75" y="-306.45" font-family="Songti SC, Noto Serif CJK SC, serif" font-weight="bold" font-size="14.00">state.vscdb</text>
<polygon fill="#f8fff8" stroke="none" points="120.5,-250.5 120.5,-291.5 214,-291.5 214,-250.5 120.5,-250.5"/>
<polygon fill="none" stroke="#7a9e7e" points="120.5,-250.5 120.5,-291.5 214,-291.5 214,-250.5 120.5,-250.5"/>
<text text-anchor="start" x="127.5" y="-275.95" font-family="Songti SC, Noto Serif CJK SC, serif" font-size="9.00">SQLite state database</text>
<text text-anchor="start" x="130.12" y="-262.45" font-family="Songti SC, Noto Serif CJK SC, serif" font-size="9.00">trajectory summaries</text>
</g>
<!-- source_label&#45;&gt;state_db -->
<!-- discover -->
<g id="node6" class="node">
<title>discover</title>
<polygon fill="#eae3f4" stroke="none" points="221.62,-160 221.62,-194.25 336.88,-194.25 336.88,-160 221.62,-160"/>
<polygon fill="none" stroke="#b9b2c8" points="221.62,-160 221.62,-194.25 336.88,-194.25 336.88,-160 221.62,-160"/>
<text text-anchor="start" x="228.62" y="-174.95" font-family="Songti SC, Noto Serif CJK SC, serif" font-weight="bold" font-size="14.00">Session Discovery</text>
<polygon fill="#fffcff" stroke="none" points="221.62,-119 221.62,-160 336.88,-160 336.88,-119 221.62,-119"/>
<polygon fill="none" stroke="#b9b2c8" points="221.62,-119 221.62,-160 336.88,-160 336.88,-119 221.62,-119"/>
<text text-anchor="start" x="245.12" y="-144.45" font-family="Songti SC, Noto Serif CJK SC, serif" font-size="9.00">merge multi&#45;source</text>
<text text-anchor="start" x="244" y="-130.95" font-family="Songti SC, Noto Serif CJK SC, serif" font-size="9.00">validate cascade_id</text>
</g>
<!-- state_db&#45;&gt;discover -->
<g id="edge4" class="edge">
<title>state_db&#45;&gt;discover</title>
<path fill="none" stroke="#8b7355" d="M198.75,-250.71C211.63,-235.81 226.67,-218.42 240.24,-202.73"/>
<polygon fill="#8b7355" stroke="#8b7355" points="242.72,-205.22 246.61,-195.36 237.42,-200.64 242.72,-205.22"/>
<text text-anchor="middle" x="242" y="-223.95" font-family="Songti SC, Noto Serif CJK SC, serif" font-size="9.00">summaries</text>
</g>
<!-- cache -->
<g id="node3" class="node">
<title>cache</title>
<polygon fill="#d4e8d4" stroke="none" points="242.88,-291.5 242.88,-325.75 365.62,-325.75 365.62,-291.5 242.88,-291.5"/>
<polygon fill="none" stroke="#7a9e7e" points="242.88,-291.5 242.88,-325.75 365.62,-325.75 365.62,-291.5 242.88,-291.5"/>
<text text-anchor="start" x="249.88" y="-306.45" font-family="Songti SC, Noto Serif CJK SC, serif" font-weight="bold" font-size="14.00">conversations/*.pb</text>
<polygon fill="#f8fff8" stroke="none" points="242.88,-250.5 242.88,-291.5 365.62,-291.5 365.62,-250.5 242.88,-250.5"/>
<polygon fill="none" stroke="#7a9e7e" points="242.88,-250.5 242.88,-291.5 365.62,-291.5 365.62,-250.5 242.88,-250.5"/>
<text text-anchor="start" x="268.62" y="-275.95" font-family="Songti SC, Noto Serif CJK SC, serif" font-size="9.00">Protobuf cache files</text>
<text text-anchor="start" x="274.25" y="-262.45" font-family="Songti SC, Noto Serif CJK SC, serif" font-size="9.00">cascade_id index</text>
</g>
<!-- cache&#45;&gt;discover -->
<g id="edge5" class="edge">
<title>cache&#45;&gt;discover</title>
<path fill="none" stroke="#8b7355" d="M297.22,-250.71C294.5,-236.64 291.36,-220.35 288.47,-205.36"/>
<polygon fill="#8b7355" stroke="#8b7355" points="291.93,-204.86 286.6,-195.7 285.06,-206.19 291.93,-204.86"/>
<text text-anchor="middle" x="314.25" y="-223.95" font-family="Songti SC, Noto Serif CJK SC, serif" font-size="9.00">cascade_ids</text>
</g>
<!-- ls -->
<g id="node4" class="node">
<title>ls</title>
<polygon fill="#d4e8d4" stroke="none" points="420,-291.5 420,-325.75 528.5,-325.75 528.5,-291.5 420,-291.5"/>
<polygon fill="none" stroke="#7a9e7e" points="420,-291.5 420,-325.75 528.5,-325.75 528.5,-291.5 420,-291.5"/>
<text text-anchor="start" x="427" y="-306.45" font-family="Songti SC, Noto Serif CJK SC, serif" font-weight="bold" font-size="14.00">Language Server</text>
<polygon fill="#f8fff8" stroke="none" points="420,-250.5 420,-291.5 528.5,-291.5 528.5,-250.5 420,-250.5"/>
<polygon fill="none" stroke="#7a9e7e" points="420,-250.5 420,-291.5 528.5,-291.5 528.5,-250.5 420,-250.5"/>
<text text-anchor="start" x="437.5" y="-275.95" font-family="Songti SC, Noto Serif CJK SC, serif" font-size="9.00">running local service</text>
<text text-anchor="start" x="432.62" y="-262.45" font-family="Songti SC, Noto Serif CJK SC, serif" font-size="9.00">127.0.0.1:port + CSRF</text>
</g>
<!-- rpc -->
<g id="node7" class="node">
<title>rpc</title>
<polygon fill="#efe8f7" stroke="none" points="424.5,-166.75 424.5,-201 524,-201 524,-166.75 424.5,-166.75"/>
<polygon fill="none" stroke="#b9b2c8" points="424.5,-166.75 424.5,-201 524,-201 524,-166.75 424.5,-166.75"/>
<text text-anchor="start" x="446.5" y="-181.7" font-family="Songti SC, Noto Serif CJK SC, serif" font-weight="bold" font-size="14.00">Live RPC</text>
<polygon fill="#fffcff" stroke="none" points="424.5,-112.25 424.5,-166.75 524,-166.75 524,-112.25 424.5,-112.25"/>
<polygon fill="none" stroke="#b9b2c8" points="424.5,-112.25 424.5,-166.75 524,-166.75 524,-112.25 424.5,-112.25"/>
<text text-anchor="start" x="434.12" y="-151.2" font-family="Songti SC, Noto Serif CJK SC, serif" font-size="9.00">GetCascadeTrajectory</text>
<text text-anchor="start" x="439.75" y="-137.7" font-family="Songti SC, Noto Serif CJK SC, serif" font-size="9.00">GetTrajectorySteps</text>
<text text-anchor="start" x="431.5" y="-124.2" font-family="Songti SC, Noto Serif CJK SC, serif" font-size="9.00">GetGeneratorMetadata</text>
</g>
<!-- ls&#45;&gt;rpc -->
<g id="edge6" class="edge">
<title>ls&#45;&gt;rpc</title>
<path fill="none" stroke="#8b7355" d="M474.25,-250.71C474.25,-238.67 474.25,-225.01 474.25,-211.93"/>
<polygon fill="#8b7355" stroke="#8b7355" points="477.75,-212.16 474.25,-202.16 470.75,-212.16 477.75,-212.16"/>
<text text-anchor="middle" x="501.25" y="-223.95" font-family="Songti SC, Noto Serif CJK SC, serif" font-size="9.00">HTTP/HTTPS</text>
</g>
<!-- core_label -->
<g id="node5" class="node">
<title>core_label</title>
<text text-anchor="start" x="114.25" y="-155.05" font-family="Songti SC, Noto Serif CJK SC, serif" font-weight="bold" font-size="11.00" fill="#b9b2c8">Core Logic</text>
</g>
<!-- core_label&#45;&gt;discover -->
<!-- discover&#45;&gt;rpc -->
<g id="edge7" class="edge">
<title>discover&#45;&gt;rpc</title>
<path fill="none" stroke="#8b7355" d="M336.7,-156.62C360.85,-156.62 388.97,-156.62 413.46,-156.62"/>
<polygon fill="#8b7355" stroke="#8b7355" points="413.29,-160.13 423.29,-156.63 413.29,-153.13 413.29,-160.13"/>
<text text-anchor="middle" x="380.69" y="-164.57" font-family="Songti SC, Noto Serif CJK SC, serif" font-size="9.00">matched process</text>
</g>
<!-- render -->
<g id="node8" class="node">
<title>render</title>
<polygon fill="#f2ecf8" stroke="none" points="602,-160 602,-194.25 722.5,-194.25 722.5,-160 602,-160"/>
<polygon fill="none" stroke="#b9b2c8" points="602,-160 602,-194.25 722.5,-194.25 722.5,-160 602,-160"/>
<text text-anchor="start" x="609" y="-174.95" font-family="Songti SC, Noto Serif CJK SC, serif" font-weight="bold" font-size="14.00">Render Transcript</text>
<polygon fill="#fffcff" stroke="none" points="602,-119 602,-160 722.5,-160 722.5,-119 602,-119"/>
<polygon fill="none" stroke="#b9b2c8" points="602,-119 602,-160 722.5,-160 722.5,-119 602,-119"/>
<text text-anchor="start" x="634.5" y="-144.45" font-family="Songti SC, Noto Serif CJK SC, serif" font-size="9.00">parse step types</text>
<text text-anchor="start" x="626.25" y="-130.95" font-family="Songti SC, Noto Serif CJK SC, serif" font-size="9.00">generate Markdown</text>
</g>
<!-- rpc&#45;&gt;render -->
<g id="edge8" class="edge">
<title>rpc&#45;&gt;render</title>
<path fill="none" stroke="#8b7355" d="M523.64,-156.62C544.12,-156.62 568.27,-156.62 590.62,-156.62"/>
<polygon fill="#8b7355" stroke="#8b7355" points="590.61,-160.13 600.61,-156.63 590.61,-153.13 590.61,-160.13"/>
<text text-anchor="middle" x="563" y="-164.57" font-family="Songti SC, Noto Serif CJK SC, serif" font-size="9.00">decoded steps</text>
</g>
<!-- md -->
<g id="node10" class="node">
<title>md</title>
<polygon fill="#d1fae5" stroke="none" points="463.62,-41 463.62,-75.25 560.88,-75.25 560.88,-41 463.62,-41"/>
<polygon fill="none" stroke="#10b981" points="463.62,-41 463.62,-75.25 560.88,-75.25 560.88,-41 463.62,-41"/>
<text text-anchor="start" x="481.12" y="-55.95" font-family="Songti SC, Noto Serif CJK SC, serif" font-weight="bold" font-size="14.00">Markdown</text>
<polygon fill="#f0fdf4" stroke="none" points="463.62,0 463.62,-41 560.88,-41 560.88,0 463.62,0"/>
<polygon fill="none" stroke="#10b981" points="463.62,0 463.62,-41 560.88,-41 560.88,0 463.62,0"/>
<text text-anchor="start" x="478.5" y="-25.45" font-family="Songti SC, Noto Serif CJK SC, serif" font-size="9.00">readable transcript</text>
<text text-anchor="start" x="470.62" y="-11.95" font-family="Songti SC, Noto Serif CJK SC, serif" font-size="9.00">User / Assistant / Tool</text>
</g>
<!-- render&#45;&gt;md -->
<g id="edge9" class="edge">
<title>render&#45;&gt;md</title>
<path fill="none" stroke="#8b7355" d="M615.61,-119.25C600.59,-107.53 583.78,-94.42 568.16,-82.23"/>
<polygon fill="#8b7355" stroke="#8b7355" points="570.35,-79.5 560.31,-76.11 566.04,-85.02 570.35,-79.5"/>
</g>
<!-- json -->
<g id="node11" class="node">
<title>json</title>
<polygon fill="#dbeafe" stroke="none" points="685.12,-41 685.12,-75.25 761.38,-75.25 761.38,-41 685.12,-41"/>
<polygon fill="none" stroke="#3b82f6" points="685.12,-41 685.12,-75.25 761.38,-75.25 761.38,-41 685.12,-41"/>
<text text-anchor="start" x="706.75" y="-55.95" font-family="Songti SC, Noto Serif CJK SC, serif" font-weight="bold" font-size="14.00">JSON</text>
<polygon fill="#eff6ff" stroke="none" points="685.12,0 685.12,-41 761.38,-41 761.38,0 685.12,0"/>
<polygon fill="none" stroke="#3b82f6" points="685.12,0 685.12,-41 761.38,-41 761.38,0 685.12,0"/>
<text text-anchor="start" x="695.88" y="-25.45" font-family="Songti SC, Noto Serif CJK SC, serif" font-size="9.00">structured data</text>
<text text-anchor="start" x="692.12" y="-11.95" font-family="Songti SC, Noto Serif CJK SC, serif" font-size="9.00">steps + metadata</text>
</g>
<!-- render&#45;&gt;json -->
<g id="edge10" class="edge">
<title>render&#45;&gt;json</title>
<path fill="none" stroke="#8b7355" d="M681.22,-119.25C686.84,-108.46 693.08,-96.5 698.99,-85.16"/>
<polygon fill="#8b7355" stroke="#8b7355" points="702.08,-86.81 703.6,-76.32 695.87,-83.57 702.08,-86.81"/>
</g>
<!-- output_label -->
<g id="node9" class="node">
<title>output_label</title>
<text text-anchor="start" x="620.38" y="-36.05" font-family="Songti SC, Noto Serif CJK SC, serif" font-weight="bold" font-size="11.00" fill="#c9a7af">Output</text>
</g>
<!-- output_label&#45;&gt;md -->
</g>
</svg>
