<?xml version="1.0" encoding="UTF-8" standalone="no"?>
<!DOCTYPE svg PUBLIC "-//W3C//DTD SVG 1.1//EN"
 "http://www.w3.org/Graphics/SVG/1.1/DTD/svg11.dtd">
<!-- Generated by graphviz version 12.2.1 (20241206.2353)
 -->
<!-- Title: AntigravityExtractor Pages: 1 -->
<svg width="646pt" height="334pt"
 viewBox="0.00 0.00 645.61 333.75" xmlns="http://www.w3.org/2000/svg" xmlns:xlink="http://www.w3.org/1999/xlink">
<g id="graph0" class="graph" transform="scale(1 1) rotate(0) translate(4 329.75)">
<title>AntigravityExtractor</title>
<polygon fill="#fffcf7" stroke="none" points="-4,4 -4,-329.75 641.61,-329.75 641.61,4 -4,4"/>
<!-- source_label -->
<g id="node1" class="node">
<title>source_label</title>
<text text-anchor="start" x="2" y="-286.55" font-family="Songti SC, Noto Serif CJK SC, serif" font-weight="bold" font-size="11.00" fill="#7a9e7e">Data Sources</text>
</g>
<!-- core_label -->
<g id="node5" class="node">
<title>core_label</title>
<text text-anchor="start" x="7.25" y="-155.05" font-family="Songti SC, Noto Serif CJK SC, serif" font-weight="bold" font-size="11.00" fill="#b9b2c8">Core Logic</text>
</g>
<!-- source_label&#45;&gt;core_label -->
<!-- state_db -->
<g id="node2" class="node">
<title>state_db</title>
<polygon fill="#d4e8d4" stroke="none" points="91.5,-291.5 91.5,-325.75 185,-325.75 185,-291.5 91.5,-291.5"/>
<polygon fill="none" stroke="#7a9e7e" points="91.5,-291.5 91.5,-325.75 185,-325.75 185,-291.5 91.5,-291.5"/>
<text text-anchor="start" x="106.75" y="-306.45" font-family="Songti SC, Noto Serif CJK SC, serif" font-weight="bold" font-size="14.00">state.vscdb</text>
<polygon fill="#f8fff8" stroke="none" points="91.5,-250.5 91.5,-291.5 185,-291.5 185,-250.5 91.5,-250.5"/>
<polygon fill="none" stroke="#7a9e7e" points="91.5,-250.5 91.5,-291.5 185,-291.5 185,-250.5 91.5,-250.5"/>
<text text-anchor="start" x="98.5" y="-275.95" font-family="Songti SC, Noto Serif CJK SC, serif" font-size="9.00">SQLite state database</text>
<text text-anchor="start" x="101.12" y="-262.45" font-family="Songti SC, Noto Serif CJK SC, serif" font-size="9.00">trajectory summaries</text>
</g>
<!-- discover -->
<g id="node6" class="node">
<title>discover</title>
<polygon fill="#eae3f4" stroke="none" points="129.62,-160 129.62,-194.25 244.88,-194.25 244.88,-160 129.62,-160"/>
<polygon fill="none" stroke="#b9b2c8" points="129.62,-160 129.62,-194.25 244.88,-194.25 244.88,-160 129.62,-160"/>
<text text-anchor="start" x="136.62" y="-174.95" font-family="Songti SC, Noto Serif CJK SC, serif" font-weight="bold" font-size="14.00">Session Discovery</text>
<polygon fill="#fffcff" stroke="none" points="129.62,-119 129.62,-160 244.88,-160 244.88,-119 129.62,-119"/>
<polygon fill="none" stroke="#b9b2c8" points="129.62,-119 129.62,-160 244.88,-160 244.88,-119 129.62,-119"/>
<text text-anchor="start" x="153.12" y="-144.45" font-family="Songti SC, Noto Serif CJK SC, serif" font-size="9.00">merge multi&#45;source</text>
<text text-anchor="start" x="152" y="-130.95" font-family="Songti SC, Noto Serif CJK SC, serif" font-size="9.00">validate cascade_id</text>
</g>
<!-- state_db&#45;&gt;discover -->
<!-- state_db&#45;&gt;discover -->
<g id="edge6" class="edge">
<title>state_db&#45;&gt;discover</title>
<path fill="none" stroke="#8b7355" d="M152.03,-250.71C157.41,-236.5 163.64,-220.03 169.35,-204.92"/>
<polygon fill="#8b7355" stroke="#8b7355" points="172.6,-206.23 172.87,-195.63 166.06,-203.75 172.6,-206.23"/>
<text text-anchor="middle" x="181.5" y="-223.95" font-family="Songti SC, Noto Serif CJK SC, serif" font-size="9.00">summaries</text>
</g>
<!-- cache -->
<g id="node3" class="node">
<title>cache</title>
<polygon fill="#d4e8d4" stroke="none" points="213.88,-291.5 213.88,-325.75 336.62,-325.75 336.62,-291.5 213.88,-291.5"/>
<polygon fill="none" stroke="#7a9e7e" points="213.88,-291.5 213.88,-325.75 336.62,-325.75 336.62,-291.5 213.88,-291.5"/>
<text text-anchor="start" x="220.88" y="-306.45" font-family="Songti SC, Noto Serif CJK SC, serif" font-weight="bold" font-size="14.00">conversations/*.pb</text>
<polygon fill="#f8fff8" stroke="none" points="213.88,-250.5 213.88,-291.5 336.62,-291.5 336.62,-250.5 213.88,-250.5"/>
<polygon fill="none" stroke="#7a9e7e" points="213.88,-250.5 213.88,-291.5 336.62,-291.5 336.62,-250.5 213.88,-250.5"/>
<text text-anchor="start" x="239.62" y="-275.95" font-family="Songti SC, Noto Serif CJK SC, serif" font-size="9.00">Protobuf cache files</text>
<text text-anchor="start" x="245.25" y="-262.45" font-family="Songti SC, Noto Serif CJK SC, serif" font-size="9.00">cascade_id index</text>
</g>
<!-- cache&#45;&gt;discover -->
<g id="edge7" class="edge">
<title>cache&#45;&gt;discover</title>
<path fill="none" stroke="#8b7355" d="M250.5,-250.71C240.57,-236.09 229,-219.07 218.5,-203.61"/>
<polygon fill="#8b7355" stroke="#8b7355" points="221.48,-201.77 212.97,-195.47 215.69,-205.71 221.48,-201.77"/>
<text text-anchor="middle" x="257.52" y="-223.95" font-family="Songti SC, Noto Serif CJK SC, serif" font-size="9.00">cascade_ids</text>
</g>
<!-- ls -->
<g id="node4" class="node">
<title>ls</title>
<polygon fill="#d4e8d4" stroke="none" points="427,-291.5 427,-325.75 535.5,-325.75 535.5,-291.5 427,-291.5"/>
<polygon fill="none" stroke="#7a9e7e" points="427,-291.5 427,-325.75 535.5,-325.75 535.5,-291.5 427,-291.5"/>
<text text-anchor="start" x="434" y="-306.45" font-family="Songti SC, Noto Serif CJK SC, serif" font-weight="bold" font-size="14.00">Language Server</text>
<polygon fill="#f8fff8" stroke="none" points="427,-250.5 427,-291.5 535.5,-291.5 535.5,-250.5 427,-250.5"/>
<polygon fill="none" stroke="#7a9e7e" points="427,-250.5 427,-291.5 535.5,-291.5 535.5,-250.5 427,-250.5"/>
<text text-anchor="start" x="444.5" y="-275.95" font-family="Songti SC, Noto Serif CJK SC, serif" font-size="9.00">running local service</text>
<text text-anchor="start" x="439.62" y="-262.45" font-family="Songti SC, Noto Serif CJK SC, serif" font-size="9.00">127.0.0.1:port + CSRF</text>
</g>
<!-- rpc -->
<g id="node7" class="node">
<title>rpc</title>
<polygon fill="#efe8f7" stroke="none" points="332.5,-166.75 332.5,-201 432,-201 432,-166.75 332.5,-166.75"/>
<polygon fill="none" stroke="#b9b2c8" points="332.5,-166.75 332.5,-201 432,-201 432,-166.75 332.5,-166.75"/>
<text text-anchor="start" x="354.5" y="-181.7" font-family="Songti SC, Noto Serif CJK SC, serif" font-weight="bold" font-size="14.00">Live RPC</text>
<polygon fill="#fffcff" stroke="none" points="332.5,-112.25 332.5,-166.75 432,-166.75 432,-112.25 332.5,-112.25"/>
<polygon fill="none" stroke="#b9b2c8" points="332.5,-112.25 332.5,-166.75 432,-166.75 432,-112.25 332.5,-112.25"/>
<text text-anchor="start" x="342.12" y="-151.2" font-family="Songti SC, Noto Serif CJK SC, serif" font-size="9.00">GetCascadeTrajectory</text>
<text text-anchor="start" x="347.75" y="-137.7" font-family="Songti SC, Noto Serif CJK SC, serif" font-size="9.00">GetTrajectorySteps</text>
<text text-anchor="start" x="339.5" y="-124.2" font-family="Songti SC, Noto Serif CJK SC, serif" font-size="9.00">GetGeneratorMetadata</text>
</g>
<!-- ls&#45;&gt;rpc -->
<g id="edge8" class="edge">
<title>ls&#45;&gt;rpc</title>
<path fill="none" stroke="#8b7355" d="M453.41,-250.71C443.65,-237.94 432.49,-223.35 421.95,-209.56"/>
<polygon fill="#8b7355" stroke="#8b7355" points="424.91,-207.67 416.06,-201.85 419.35,-211.92 424.91,-207.67"/>
<text text-anchor="middle" x="464.68" y="-223.95" font-family="Songti SC, Noto Serif CJK SC, serif" font-size="9.00">HTTP/HTTPS</text>
</g>
<!-- render -->
<g id="node8" class="node">
<title>render</title>
<polygon fill="#f2ecf8" stroke="none" points="510,-160 510,-194.25 630.5,-194.25 630.5,-160 510,-160"/>
<polygon fill="none" stroke="#b9b2c8" points="510,-160 510,-194.25 630.5,-194.25 630.5,-160 510,-160"/>
<text text-anchor="start" x="517" y="-174.95" font-family="Songti SC, Noto Serif CJK SC, serif" font-weight="bold" font-size="14.00">Render Transcript</text>
<polygon fill="#fffcff" stroke="none" points="510,-119 510,-160 630.5,-160 630.5,-119 510,-119"/>
<polygon fill="none" stroke="#b9b2c8" points="510,-119 510,-160 630.5,-160 630.5,-119 510,-119"/>
<text text-anchor="start" x="542.5" y="-144.45" font-family="Songti SC, Noto Serif CJK SC, serif" font-size="9.00">parse step types</text>
<text text-anchor="start" x="534.25" y="-130.95" font-family="Songti SC, Noto Serif CJK SC, serif" font-size="9.00">generate Markdown</text>
</g>
<!-- ls&#45;&gt;render -->
<!-- output_label -->
<g id="node9" class="node">
<title>output_label</title>
<text text-anchor="start" x="14.38" y="-36.05" font-family="Songti SC, Noto Serif CJK SC, serif" font-weight="bold" font-size="11.00" fill="#c9a7af">Output</text>
</g>
<!-- core_label&#45;&gt;output_label -->
<!-- discover&#45;&gt;rpc -->
<g id="edge9" class="edge">
<title>discover&#45;&gt;rpc</title>
<path fill="none" stroke="#8b7355" d="M244.7,-156.62C268.85,-156.62 296.97,-156.62 321.46,-156.62"/>
<polygon fill="#8b7355" stroke="#8b7355" points="321.29,-160.13 331.29,-156.63 321.29,-153.13 321.29,-160.13"/>
<text text-anchor="middle" x="288.69" y="-164.57" font-family="Songti SC, Noto Serif CJK SC, serif" font-size="9.00">matched process</text>
</g>
<!-- rpc&#45;&gt;render -->
<g id="edge10" class="edge">
<title>rpc&#45;&gt;render</title>
<path fill="none" stroke="#8b7355" d="M431.64,-156.62C452.12,-156.62 476.27,-156.62 498.62,-156.62"/>
<polygon fill="#8b7355" stroke="#8b7355" points="498.61,-160.13 508.61,-156.63 498.61,-153.13 498.61,-160.13"/>
<text text-anchor="middle" x="471" y="-164.57" font-family="Songti SC, Noto Serif CJK SC, serif" font-size="9.00">decoded steps</text>
</g>
<!-- md -->
<g id="node10" class="node">
<title>md</title>
<polygon fill="#d1fae5" stroke="none" points="405.62,-41 405.62,-75.25 502.88,-75.25 502.88,-41 405.62,-41"/>
<polygon fill="none" stroke="#10b981" points="405.62,-41 405.62,-75.25 502.88,-75.25 502.88,-41 405.62,-41"/>
<text text-anchor="start" x="423.12" y="-55.95" font-family="Songti SC, Noto Serif CJK SC, serif" font-weight="bold" font-size="14.00">Markdown</text>
<polygon fill="#f0fdf4" stroke="none" points="405.62,0 405.62,-41 502.88,-41 502.88,0 405.62,0"/>
<polygon fill="none" stroke="#10b981" points="405.62,0 405.62,-41 502.88,-41 502.88,0 405.62,0"/>
<text text-anchor="start" x="420.5" y="-25.45" font-family="Songti SC, Noto Serif CJK SC, serif" font-size="9.00">readable transcript</text>
<text text-anchor="start" x="412.62" y="-11.95" font-family="Songti SC, Noto Serif CJK SC, serif" font-size="9.00">User / Assistant / Tool</text>
</g>
<!-- render&#45;&gt;md -->
<g id="edge11" class="edge">
<title>render&#45;&gt;md</title>
<path fill="none" stroke="#8b7355" d="M534.18,-119.25C522.83,-107.8 510.17,-95.03 498.33,-83.09"/>
<polygon fill="#8b7355" stroke="#8b7355" points="500.89,-80.69 491.36,-76.06 495.92,-85.62 500.89,-80.69"/>
</g>
<!-- json -->
<g id="node11" class="node">
<title>json</title>
<polygon fill="#dbeafe" stroke="none" points="532.12,-41 532.12,-75.25 608.38,-75.25 608.38,-41 532.12,-41"/>
<polygon fill="none" stroke="#3b82f6" points="532.12,-41 532.12,-75.25 608.38,-75.25 608.38,-41 532.12,-41"/>
<text text-anchor="start" x="553.75" y="-55.95" font-family="Songti SC, Noto Serif CJK SC, serif" font-weight="bold" font-size="14.00">JSON</text>
<polygon fill="#eff6ff" stroke="none" points="532.12,0 532.12,-41 608.38,-41 608.38,0 532.12,0"/>
<polygon fill="none" stroke="#3b82f6" points="532.12,0 532.12,-41 608.38,-41 608.38,0 532.12,0"/>
<text text-anchor="start" x="542.88" y="-25.45" font-family="Songti SC, Noto Serif CJK SC, serif" font-size="9.00">structured data</text>
<text text-anchor="start" x="539.12" y="-11.95" font-family="Songti SC, Noto Serif CJK SC, serif" font-size="9.00">steps + metadata</text>
</g>
<!-- render&#45;&gt;json -->
<g id="edge12" class="edge">
<title>render&#45;&gt;json</title>
<path fill="none" stroke="#8b7355" d="M570.25,-119.25C570.25,-108.79 570.25,-97.23 570.25,-86.21"/>
<polygon fill="#8b7355" stroke="#8b7355" points="573.75,-86.49 570.25,-76.49 566.75,-86.49 573.75,-86.49"/>
</g>
<!-- output_spacer -->
<!-- render&#45;&gt;output_spacer -->
</g>
</svg>
